<?xml version="1.0" standalone="no"?>
<!DOCTYPE svg PUBLIC "-//W3C//DTD SVG 20010904//EN"
 "http://www.w3.org/TR/2001/REC-SVG-20010904/DTD/svg10.dtd">
<svg version="1.0" xmlns="http://www.w3.org/2000/svg"
 width="1205.000000pt" height="1205.000000pt" viewBox="0 0 1205.000000 1205.000000"
 preserveAspectRatio="xMidYMid meet">
<metadata>
Created by potrace 1.11, written by Peter Selinger 2001-2013
</metadata>
<g transform="translate(0.000000,1205.000000) scale(0.100000,-0.100000)"
fill="#000000" stroke="none">
<path d="M6100 10574 c-117 -45 -381 -177 -417 -208 -74 -65 -110 -166 -92
-262 5 -25 122 -287 260 -584 231 -496 255 -543 298 -583 63 -59 122 -80 208
-75 60 3 91 14 253 88 155 71 193 93 236 135 65 64 89 130 81 220 -4 56 -31
120 -258 606 -271 582 -281 599 -374 644 -40 19 -163 31 -195 19z"/>
<path d="M7465 10324 c-153 -28 -307 -84 -427 -155 l-67 -39 35 -78 c20 -42
49 -105 65 -140 l28 -63 63 40 c81 51 212 104 313 127 97 23 321 26 405 5 214
-51 385 -142 517 -278 47 -47 2538 -3011 2641 -3141 134 -170 205 -381 205
-612 0 -184 -40 -338 -126 -490 -138 -245 -399 -445 -672 -516 -130 -34 -326
-38 -450 -10 -161 37 -310 108 -425 205 -30 25 -136 125 -235 221 -99 96 -206
198 -238 225 -32 28 -116 115 -186 195 l-128 145 -489 345 c-269 190 -651 464
-849 609 -198 145 -375 270 -394 278 -21 9 -47 12 -67 8 -44 -8 -929 -395
-1439 -630 -257 -118 -558 -270 -593 -300 -59 -50 -84 -246 -48 -384 52 -200
214 -364 412 -416 75 -20 223 -20 295 -1 30 8 307 132 615 276 307 143 565
259 571 258 7 -2 119 -122 249 -267 l236 -264 -39 -30 c-66 -52 -196 -192
-256 -275 -124 -173 -224 -409 -263 -627 -25 -135 -25 -413 0 -540 9 -49 19
-106 22 -125 l6 -35 -21 25 c-34 41 -108 199 -135 290 -99 334 -91 743 24
1195 21 83 37 151 36 152 -4 5 -599 -243 -841 -350 -263 -115 -742 -352 -924
-457 -336 -193 -552 -350 -737 -534 -139 -140 -209 -237 -245 -342 -11 -33
-24 -68 -29 -79 -6 -11 -17 -53 -25 -92 -46 -226 -65 -547 -45 -783 20 -243
24 -430 11 -506 -68 -394 -352 -702 -739 -800 -531 -135 -1062 173 -1218 706
-7 25 -171 943 -365 2040 -390 2208 -380 2140 -341 2330 64 311 267 576 544
711 l46 22 -56 136 c-30 75 -57 138 -59 140 -2 3 -34 -10 -71 -28 -224 -110
-431 -306 -557 -526 -124 -218 -186 -497 -165 -740 10 -113 699 -4036 731
-4160 41 -163 140 -355 250 -488 340 -410 875 -572 1394 -422 423 123 768 479
880 912 44 166 51 287 32 522 -22 275 -27 361 -19 361 4 0 20 -21 37 -48 63
-100 181 -249 269 -340 706 -731 1867 -969 2904 -596 156 56 433 191 569 277
711 450 1172 1159 1274 1957 16 125 16 430 0 550 -7 52 -21 137 -32 189 -10
51 -19 100 -19 109 0 9 45 -28 103 -84 176 -172 282 -250 440 -324 299 -140
673 -157 987 -45 329 118 643 400 784 706 79 172 116 323 123 514 11 277 -65
543 -218 770 -43 63 -1794 2161 -2559 3065 -155 183 -207 234 -327 322 -139
102 -361 193 -543 223 -117 19 -327 18 -435 -1z"/>
<path d="M4759 10201 c-14 -5 -106 -46 -205 -92 -146 -68 -188 -92 -226 -131
-59 -61 -82 -124 -76 -216 4 -63 22 -104 282 -662 153 -327 294 -626 312 -665
62 -128 162 -191 287 -183 52 3 92 18 245 88 197 91 246 125 290 198 24 42 27
57 27 137 l0 90 -282 602 c-386 825 -348 755 -445 808 -55 30 -158 43 -209 26z"/>
<path d="M3595 9403 c-11 -2 -101 -41 -199 -86 -197 -90 -258 -134 -295 -211
-32 -69 -37 -140 -14 -206 10 -30 127 -286 258 -569 214 -458 245 -519 287
-562 60 -60 123 -83 216 -77 59 3 90 14 251 88 101 47 200 99 220 116 76 65
117 189 92 280 -6 23 -121 277 -255 565 -272 586 -286 609 -392 648 -51 19
-121 25 -169 14z"/>
<path d="M7525 8990 c-54 -12 -96 -40 -126 -88 -24 -37 -29 -57 -29 -105 0
-54 7 -71 96 -244 52 -102 93 -190 91 -197 -3 -6 -92 -56 -198 -111 -175 -91
-195 -103 -221 -144 -22 -35 -28 -57 -28 -100 0 -117 70 -192 185 -199 62 -4
62 -4 259 97 l196 101 94 -187 c119 -238 153 -273 263 -273 110 0 193 82 193
191 0 52 -8 74 -95 248 -52 106 -95 195 -95 199 0 4 77 46 171 92 94 47 185
95 203 108 51 37 76 88 76 155 0 121 -75 197 -194 197 -50 0 -74 -10 -247 -96
-105 -53 -195 -92 -199 -87 -4 4 -52 93 -106 197 -83 159 -104 192 -136 214
-43 28 -107 41 -153 32z"/>
<path d="M2409 8600 c-35 -10 -346 -155 -387 -180 -36 -22 -91 -94 -109 -143
-18 -49 -15 -141 5 -194 10 -27 104 -230 208 -453 124 -267 200 -418 222 -442
66 -73 185 -111 272 -88 25 7 127 50 228 97 144 68 190 94 218 126 67 74 96
174 74 257 -6 25 -100 236 -208 470 -184 396 -201 429 -250 477 -38 38 -66 56
-104 68 -55 16 -126 18 -169 5z"/>
<path d="M2542 6657 c-162 -59 -198 -276 -65 -386 47 -39 102 -54 170 -49 169
14 255 224 148 364 -53 69 -168 101 -253 71z"/>
<path d="M3253 6379 c-79 -39 -123 -112 -123 -201 1 -134 119 -242 247 -224
223 30 276 320 79 421 -64 32 -143 34 -203 4z"/>
<path d="M2294 5929 c-23 -5 -60 -26 -84 -46 -128 -110 -99 -314 54 -378 40
-17 119 -22 157 -10 45 15 100 59 125 100 102 174 -54 381 -252 334z"/>
<path d="M3012 5659 c-48 -14 -128 -95 -141 -144 -24 -87 -5 -167 54 -229 97
-101 275 -82 349 37 59 96 44 210 -38 285 -62 57 -140 75 -224 51z"/>
</g>
</svg>
