<?xml version="1.0" standalone="no"?>
<!DOCTYPE svg PUBLIC "-//W3C//DTD SVG 20010904//EN"
 "http://www.w3.org/TR/2001/REC-SVG-20010904/DTD/svg10.dtd">
<svg version="1.0" xmlns="http://www.w3.org/2000/svg"
 width="764.000000pt" height="764.000000pt" viewBox="0 0 764.000000 764.000000"
 preserveAspectRatio="xMidYMid meet">
<metadata>
Created by potrace 1.11, written by Peter Selinger 2001-2013
</metadata>
<g transform="translate(0.000000,764.000000) scale(0.100000,-0.100000)"
fill="#000000" stroke="none">
<path d="M4380 7570 l0 -70 -140 0 -140 0 0 -70 0 -70 -210 0 -210 0 0 -70 0
-70 -70 0 -70 0 0 -70 0 -70 -140 0 -140 0 0 -65 0 -65 -65 0 -65 0 0 -140 0
-140 -70 0 -70 0 0 -210 0 -210 -70 0 -70 0 0 -345 0 -345 70 0 70 0 0 -140 0
-140 70 0 70 0 0 -140 0 -140 65 0 65 0 0 -140 0 -140 70 0 70 0 0 -70 0 -70
280 0 280 0 0 -65 0 -65 70 0 70 0 0 -70 0 -70 -140 0 -140 0 0 70 0 70 -485
0 -485 0 0 -70 0 -70 -210 0 -210 0 0 -70 0 -70 -140 0 -140 0 0 -70 0 -70
-70 0 -70 0 0 -70 0 -70 -65 0 -65 0 0 -140 0 -140 -70 0 -70 0 0 -140 0 -140
-70 0 -70 0 0 -345 0 -345 205 0 205 0 0 70 0 70 70 0 70 0 0 140 0 140 70 0
70 0 0 135 0 135 70 0 70 0 0 140 0 140 210 0 210 0 0 -70 0 -70 -70 0 -70 0
0 -70 0 -70 -70 0 -70 0 0 -135 0 -135 -70 0 -70 0 0 -210 0 -210 70 0 70 0 0
-350 0 -350 70 0 70 0 0 -135 0 -135 -695 0 -695 0 0 -140 0 -140 70 0 70 0 0
-70 0 -70 -70 0 -70 0 0 -485 0 -485 140 0 140 0 0 140 0 140 70 0 70 0 0 135
0 135 760 0 760 0 0 70 0 70 70 0 70 0 0 70 0 70 70 0 70 0 0 -140 0 -140 -70
0 -70 0 0 -415 0 -415 70 0 70 0 0 70 0 70 70 0 70 0 0 -70 0 -70 485 0 485 0
0 70 0 70 70 0 70 0 0 70 0 70 -205 0 -205 0 0 70 0 70 -70 0 -70 0 0 70 0 70
70 0 70 0 0 135 0 135 65 0 65 0 0 280 0 280 70 0 70 0 0 345 0 345 -70 0 -70
0 0 70 0 70 280 0 280 0 0 70 0 70 70 0 70 0 0 -70 0 -70 345 0 345 0 0 140 0
140 70 0 70 0 0 -70 0 -70 140 0 140 0 0 280 0 280 -210 0 -210 0 0 -70 0 -70
-205 0 -205 0 0 70 0 70 -70 0 -70 0 0 135 0 135 -70 0 -70 0 0 210 0 210 -70
0 -70 0 0 70 0 70 -70 0 -70 0 0 140 0 140 350 0 350 0 0 70 0 70 65 0 65 0 0
70 0 70 70 0 70 0 0 275 0 275 70 0 70 0 0 420 0 420 -70 0 -70 0 0 205 0 205
70 0 70 0 0 210 0 210 -70 0 -70 0 0 140 0 140 -70 0 -70 0 0 135 0 135 -65 0
-65 0 0 70 0 70 -70 0 -70 0 0 70 0 70 -140 0 -140 0 0 70 0 70 -70 0 -70 0 0
70 0 70 -345 0 -345 0 0 -70z m-1390 -3890 l0 -70 -70 0 -70 0 0 70 0 70 70 0
70 0 0 -70z m690 -2500 l0 -70 -70 0 -70 0 0 70 0 70 70 0 70 0 0 -70z"/>
</g>
</svg>
